control3min_grf.mot
version=1
nRows=27
nColumns 19
inDegrees=yes
endheader
time	1_ground_force_vx	1_ground_force_vy	1_ground_force_vz	1_ground_force_px	1_ground_force_py	1_ground_force_pz	1_ground_torque_x	1_ground_torque_y	1_ground_torque_z	2_ground_force_vx	2_ground_force_vy	2_ground_force_vz	2_ground_force_px	2_ground_force_py	2_ground_force_pz	2_ground_torque_x	2_ground_torque_y	2_ground_torque_z
            3.751500	           12.232055	          177.240689	           -7.937437	           -0.177192	            0.006329	           -0.427578	            0.044892	            0.650484	           -0.029131	           26.773882	          293.954206	           14.223628	           -0.209401	            0.005696	           -0.688719	            0.106879	            1.173441	            0.056780
            3.752000	           11.908350	          180.128810	           -8.841392	           -0.178441	            0.006330	           -0.428004	           -0.021003	           -0.317696	            0.015594	           26.480175	          297.451819	           14.283159	           -0.209490	            0.005695	           -0.688512	            0.111782	            1.255643	            0.060294
            3.752500	           12.096316	          184.265716	           -6.668841	           -0.180868	            0.006325	           -0.426949	           -0.091357	           -1.391654	            0.050366	           26.460025	          303.156742	           15.335947	           -0.209576	            0.005695	           -0.688737	            0.120331	            1.378657	            0.069743
            3.753000	           13.386674	          189.660565	           -3.530636	           -0.180901	            0.006333	           -0.428724	           -0.119625	           -1.694836	            0.031550	           27.945216	          307.208413	           16.757607	           -0.209590	            0.005696	           -0.688912	            0.127904	            1.406080	            0.076699
            3.753500	           15.271250	          195.238744	           -1.080975	           -0.179910	            0.006334	           -0.428880	           -0.059413	           -0.759582	            0.004206	           30.779691	          313.843522	           18.047105	           -0.210513	            0.005695	           -0.689644	            0.143549	            1.463689	            0.084167
            3.754000	           16.599363	          196.322560	           -1.538196	           -0.180992	            0.006334	           -0.428989	            0.050513	            0.597420	           -0.004681	           33.805285	          319.376639	           18.722515	           -0.210663	            0.005694	           -0.689679	            0.157893	            1.491701	            0.087447
            3.754500	           17.095267	          199.761075	           -4.642963	           -0.181530	            0.006326	           -0.427077	            0.119606	            1.397618	           -0.032484	           35.895498	          324.356902	           18.551646	           -0.211148	            0.005691	           -0.689112	            0.156027	            1.409880	            0.080638
            3.755000	           16.211556	          204.468261	           -9.389720	           -0.179177	            0.006327	           -0.427379	            0.076310	            0.962462	           -0.044199	           36.671783	          329.886084	           18.054810	           -0.211108	            0.005691	           -0.689101	            0.169022	            1.520458	            0.083215
            3.755500	           14.598165	          207.006219	          -12.768254	           -0.179210	            0.006332	           -0.428524	           -0.037076	           -0.525748	            0.032428	           36.091290	          334.858881	           17.275012	           -0.211137	            0.005689	           -0.688657	            0.172042	            1.596227	            0.082348
            3.756000	           13.359354	          211.513015	          -12.837569	           -0.182004	            0.006324	           -0.426741	           -0.119158	           -1.886577	            0.114504	           35.225316	          341.117595	           17.109999	           -0.210861	            0.005690	           -0.688682	            0.169789	            1.644211	            0.082471
            3.756500	           13.639086	          215.830007	          -10.618617	           -0.182076	            0.006322	           -0.426338	           -0.136243	           -2.155953	            0.106071	           34.500918	          347.189601	           17.788974	           -0.210784	            0.005690	           -0.688408	            0.187214	            1.883971	            0.096529
            3.757000	           15.250492	          221.044456	           -7.436125	           -0.181193	            0.006327	           -0.427329	           -0.070828	           -1.026597	            0.034536	           35.362822	          355.108493	           18.567698	           -0.211282	            0.005690	           -0.689132	            0.196954	            1.977786	            0.103413
            3.757500	           17.638243	          222.660033	           -5.738416	           -0.180846	            0.006331	           -0.428285	            0.058972	            0.744447	           -0.019186	           37.264758	          360.452740	           19.430642	           -0.211184	            0.005689	           -0.688539	            0.205712	            1.989802	            0.107263
            3.758000	           19.056035	          226.630675	           -6.779624	           -0.181935	            0.006324	           -0.426610	            0.134160	            1.595548	           -0.047731	           38.929730	          366.533206	           20.155529	           -0.211282	            0.005689	           -0.688728	            0.210621	            1.983049	            0.109047
            3.758500	           19.458917	          231.152731	          -10.338085	           -0.181549	            0.006327	           -0.427406	            0.100014	            1.188063	           -0.053135	           39.746550	          373.901347	           20.416093	           -0.211371	            0.005688	           -0.688558	            0.196399	            1.847556	            0.100882
            3.759000	           17.981328	          235.675998	          -14.258729	           -0.180622	            0.006334	           -0.428979	           -0.032767	           -0.429470	            0.025984	           38.503879	          380.710231	           20.487851	           -0.211295	            0.005688	           -0.688468	            0.186448	            1.843524	            0.099209
            3.759500	           16.141499	          241.092461	          -16.294505	           -0.181709	            0.006328	           -0.427615	           -0.124478	           -1.859219	            0.125657	           37.164750	          388.256299	           20.327636	           -0.211508	            0.005688	           -0.688594	            0.181732	            1.898533	            0.099400
            3.760000	           14.676041	          246.495823	          -15.258845	           -0.183339	            0.006319	           -0.425707	           -0.123838	           -2.079952	            0.128755	           35.502593	          394.509900	           20.773026	           -0.210958	            0.005689	           -0.688492	            0.190267	            2.114278	            0.111328
            3.760500	           15.001356	          250.993483	          -13.130946	           -0.181776	            0.006325	           -0.426830	           -0.061984	           -1.037083	            0.054256	           34.584883	          402.238055	           21.598779	           -0.210649	            0.005690	           -0.688456	            0.199661	            2.322155	            0.124692
            3.761000	           16.701862	          256.032205	          -11.004140	           -0.181155	            0.006327	           -0.427402	            0.036398	            0.557970	           -0.023981	           34.975434	          411.072169	           23.460334	           -0.210921	            0.005691	           -0.688996	            0.208958	            2.455921	            0.140162
            3.761500	           18.536023	          262.339136	          -10.339655	           -0.183207	            0.006322	           -0.426358	            0.095762	            1.355314	           -0.053417	           35.932246	          418.802739	           25.505421	           -0.211152	            0.005691	           -0.689159	            0.207911	            2.423277	            0.147580
            3.762000	           19.310938	          267.212524	          -11.742253	           -0.183626	            0.006320	           -0.425818	            0.067986	            0.940743	           -0.041340	           36.091766	          426.716141	           27.129150	           -0.211190	            0.005691	           -0.689274	            0.195404	            2.310281	            0.146880
            3.762500	           19.164792	          272.633640	          -14.791068	           -0.182754	            0.006324	           -0.426783	           -0.028503	           -0.405473	            0.021998	           35.405292	          435.363396	           28.662010	           -0.211256	            0.005693	           -0.689771	            0.177207	            2.179038	            0.143456
            3.763000	           17.781394	          277.152630	          -17.703109	           -0.182810	            0.006328	           -0.427760	           -0.102324	           -1.594891	            0.101874	           33.784992	          443.087675	           29.863487	           -0.211121	            0.005692	           -0.689550	            0.167176	            2.192500	            0.147771
            3.763500	           15.623297	          283.105079	          -18.635228	           -0.183975	            0.006320	           -0.425778	           -0.095857	           -1.736988	            0.114336	           31.506057	          451.546879	           30.880158	           -0.211047	            0.005693	           -0.689676	            0.165613	            2.373578	            0.162323
            3.764000	           14.432606	          287.607982	          -17.787540	           -0.183585	            0.006319	           -0.425536	           -0.042045	           -0.837866	            0.051819	           29.692671	          460.925465	           32.744621	           -0.210904	            0.005696	           -0.690249	            0.163617	            2.539862	            0.180434
            3.764500	           14.296936	          293.011011	          -16.617612	           -0.183118	            0.006323	           -0.426513	            0.015631	            0.320344	           -0.018168	           28.680688	          469.015370	           35.308068	           -0.211169	            0.005693	           -0.689870	            0.168889	            2.761836	            0.207915
